<svg xmlns="http://www.w3.org/2000/svg" xmlns:xlink="http://www.w3.org/1999/xlink" width="27" height="24" viewBox="139 135.208 27 24">
    <defs>
        <path id="a" d="M0 0h308.504v300H0z"/>
    </defs><clipPath id="b">
        <use xlink:href="#a" overflow="visible"/>
    </clipPath>
    <path clip-path="url(#b)" fill-rule="evenodd" clip-rule="evenodd" fill="#003B5C" d="M164 137.25s-.093.998 0 1c.627.018 1 0 1 0v17c-1.366.045-3.82.052-5 0-3.063-.135-7 2-7 2v1s2.632-1.586 5.933-2.099c.976.068 5.337.099 7.067.099v-19s-1.276-.006-2 0m-24 18v-17s.373.018 1 0c.092-.002 0-1 0-1-.724-.006-2 0-2 0v19c1.73 0 6.092-.03 7.067-.099 3.302.513 5.933 2.099 5.933 2.099v-1s-3.936-2.135-7-2c-1.179.052-3.634.045-5 0"/>
    <path clip-path="url(#b)" fill-rule="evenodd" clip-rule="evenodd" fill="#003B5C" d="M146 135.25a103.78 103.78 0 0 0-5 0v19s3.952.028 4 0c2.125.516 4.865 1.981 8 5v-20s-2.106-3.13-7-4m6 22c-2.417-2.472-5.039-3.629-7-4-.13-.033-3 0-3 0v-17c1.419-.002 2.717-.041 3.892-.034 3.804.634 6.108 3.034 6.108 3.034v18z"/>
    <path clip-path="url(#b)" fill-rule="evenodd" clip-rule="evenodd" fill="#003B5C" d="M159 135.25c-4.894.87-7 4-7 4v20c3.135-3.019 5.875-4.484 8-5 .048.028 4 0 4 0v-19a103.778 103.778 0 0 0-5 0m4 18s-2.87-.033-3 0c-1.961.371-4.583 1.528-7 4v-18s2.304-2.4 6.108-3.034c1.175-.007 2.473.032 3.892.034v17z"/>
</svg>

