<svg xmlns="http://www.w3.org/2000/svg" width="242" height="72" viewBox="-0.061 -0.001 242 72"><path fill="none" stroke="#003B5C" stroke-width=".617" d="M.308.518h71.298v71.297H.308z"/><path fill="#003B5C" d="M.308.518v71.297h23.766V.518H.308zM6.02 43.747c0-1.224.09-2.56.112-2.915.022-.334.09-.579.27-.579.202 0 .225.2.225.378 0 .29.089.757.201 1.136.489 1.646 1.802 2.247 3.17 2.247 1.998 0 3.642-1.354 3.642-2.532 0-1.089-.333-1.688-2.175-3.109l-1.688-1.245C7.333 35.215 6.49 33.66 6.49 31.861c0-2.444 2.71-4.202 5.795-4.202 1.443 0 2.378.223 2.965.359.201.044.312.11.312.265 0 .287-.089.931-.089 2.692 0 .49-.067.667-.245.667-.156 0-.223-.133-.223-.4 0-.2-.111-.89-.579-1.469-.333-.423-.979-1.091-2.43-1.091-1.642 0-3.309.956-3.309 2.289 0 1.022.511 1.8 2.353 3.199l1.289.912c2.667 2.066 3.646 3.11 3.646 5.22 0 1.289-.49 2.821-2.092 3.864-1.111.705-3.021.903-4.191.903-1.289 0-2.289-.154-3.246-.572-.359-.153-.426-.263-.426-.75zm11.593 23.266c-.132.48-.244.59-1.401.59-3.205 0-4.673-.131-6.476-.131-.512 0-1.914.064-2.804.064-.289 0-.445-.064-.445-.216 0-.108.089-.174.356-.174.334 0 .601-.044.801-.089.445-.089.556-.578.646-1.224.111-.935.111-2.693.111-4.74v-3.917c0-3.383 0-4.006-.044-4.718-.044-.757-.223-1.113-.957-1.269a3.278 3.278 0 0 0-.734-.066c-.245 0-.378-.044-.378-.195s.156-.194.489-.194c1.046 0 2.448.055 3.049.055.534 0 2.159-.055 3.027-.055.312 0 .467.043.467.194s-.133.195-.4.195c-.245 0-.601.021-.868.066-.601.111-.779.489-.823 1.269-.045.712-.045 1.335-.045 4.718v3.919c0 2.849 0 4.385.468 4.785.378.334.957.489 2.692.489 1.18 0 2.048-.022 2.604-.623.267-.289.534-.912.579-1.335.022-.2.066-.334.242-.337.153 0 .176.111.176.379-.002.246-.156 1.916-.332 2.56zm.253-47.75c-1.023 1.046-2.674 2.632-6.798 2.632-1.627 0-2.52-.046-3.633-.062-.512 0-1.914.065-2.804.065-.29 0-.445-.065-.445-.217 0-.108.089-.173.356-.173.333 0 .601-.044.801-.089.446-.089.557-.579.646-1.224.111-.935.111-2.693.111-4.74v-3.916c0-3.383 0-4.006-.044-4.719-.045-.757-.223-1.112-.957-1.269-.178-.044-.557-.066-.868-.066-.245 0-.378-.043-.378-.195s.156-.195.489-.195c1.18 0 2.582.056 3.205.056.69 0 1.425-.056 2.763-.056 2.786 0 5.173 0 7.6 2.526 1.111 1.157 2.155 3.005 2.155 5.653 0 2.806-.955 4.72-2.199 5.989z"/><path fill="#003B5C" d="M9.953 6.15c-.446 0-.603.067-.781.156-.201.089-.268.2-.268.444-.022.756-.022 2.689-.022 4.433v2.814c0 2.356.022 4.068.045 4.49.022.556.067 1.445.245 1.689.29.422.046.667 1.807.667 2.273 0 3.122-.445 4.459-1.601 1.427-1.223 1.65-3.022 1.65-5.312 0-2.823-.957-4.871-1.917-5.78-1.555-1.471-3.48-2-5.218-2zM64.5 14.194c-.273-.898-3.514-1.406-4.373-1.718-.859-.312-1.246-1.712-.378-2.606.867-.895 1.813-1.734 1.452-3.467s-2.84-1.742-3.387-1.742c-1.835 0-3.748.859-4.578 1.273s-3.27 1.819-3.738 1.538c-.656-.516.603-2.439.322-2.861-1.639.059-4.408 3.385-3.705 3.9 4.779 2.53 8.654-3.46 12.744-2.483 1.689.429.635 2.42-.703 2.249-4.344-.444-7.402 2.155-11.572 2.718-1.827-.094-1.771-3.64-3.489-3.64 0 0 1.914-2.577 1.484-2.538s-1.835 1.132-2.147 1.171c-.313.04-.566-1.641-.927-1.641s-.791 1.563-1.143 1.563c-.351 0-1.62-.948-1.903-.948s1.669 2.588 1.669 2.588-.281.079-.976.488c-.498.293-1.757 1.538-1.757 1.699 0 .3.819 1.349 1.201 1.669.761.638 1.962.264 1.962.264s-.107.525-.586.878c-.478.353-1.961 2.195-1.118 3.601-.849.78-6.583-.467-6.583-.467s-.439-.469-.967-.498c-.527-.029-.937.732-.937.732s-.644.293-.703.732c-.059.439.469.937.469.937s.234.673.703.791c.468.117 1.13-.221 1.23-.293.186-.134 5.222 1.579 8.355 1.491s7.538-1.082 9.442-3.987c1.148-1.75 5.335-1.779 7.239-1.398 1.903.381 4.627 1.171 4.773 1.64.146.469-.42.963-.42.963s-.562.311-.719.815.48 1.088.48 1.088.126.696.538.861c.411.164 1.023-.225 1.023-.225s.71-.062.938-.488c.229-.425.063-1.149.018-1.264 0-.002 1.041-2.487.767-3.385zM39.482 9.417l.895-1.226 1.572.537-2.467.689zm5.162 4.886c-.181.297-.482 2.019-.482 2.019-.148-.211.062-1.194-.431-1.861s-.82 2.46-1.349 3.587c-.121-1.384.527-3.165.232-3.869-.168-.401-.993 1.568-.993 1.568.011-1.464 1.328-3.071.809-3.875-.108-.167-.768.147-1.071.431-.08.096-.129.152-.129.152a.648.648 0 0 1 .129-.152c.33-.399 1.195-1.494 1.346-2.196.188-.871.202-2.227.202-2.227 1.29-.181 2.133 3.532 2.29 4.491.157.959.266 2.818.314 3.694-.001.001-.686-2.059-.867-1.762z"/><path fill="#003B5C" d="M31.944 10.619c.334.348 1.074.414 1.197.405.206-.013 3.818 4.115 4.672 4.369 0 0-.197-.483.078-1.359.275-.877 1.328-1.833 1.328-1.833-1.539-.092-4.628-3.101-4.628-3.101s-.123-.63-.554-.936c-.431-.305-1.183.122-1.183.122s-.701-.095-.984.246c-.283.341-.101 1.043-.101 1.043s-.16.696.175 1.044zm22.855 4.145c.381.292.722.846.604 1.314-.117.468-1.301.535-1.301.535s-.624-.305-1.094-.065c-.471.239-.443 1.104-.443 1.104s-.41.577-.24.986c.17.409.876.575.876.575s.541.464 1.005.331c.464-.134.866-.758.916-.871l.122-.126s1.302-.301 1.917-1.15 1.329-2.046 1.329-2.046-.615-.205-1.513-.38-2.178-.207-2.178-.207zM43.432 9.098c-.026.381-.073.86-.156 1.248-.061.285-.229.644-.492 1.064a.61.61 0 0 1 .179.164c.343.532.153 1.178-.103 1.851a.542.542 0 0 1 .308.299c.007.018.015.038.021.059a.601.601 0 0 1 .306-.17c.108-.022.381-.039.606.248a.52.52 0 0 1 .55-.341l.046.007a56.257 56.257 0 0 0-.214-1.481c-.123-.69-.548-2.196-1.051-2.948zm-15.497 2.798h-.005s-.913-1.086-1.527-.164c-.615.922 1.527 2.029 1.527 2.029h.005s2.142-1.107 1.527-2.029-1.527.164-1.527.164zm41.112-.168c-.614-.922-1.527.164-1.527.164h-.005s-.914-1.086-1.528-.164 1.528 2.029 1.528 2.029h.005s2.141-1.107 1.527-2.029zm-21.354 8.898h-.005s-.914-1.086-1.528-.164 1.528 2.029 1.528 2.029h.005s2.142-1.107 1.527-2.029-1.527.164-1.527.164zm16.808 17.207c-.273-.897-3.514-1.405-4.373-1.717-.858-.313-1.245-1.712-.378-2.607.867-.895 1.813-1.734 1.453-3.467-.361-1.733-2.84-1.742-3.387-1.742-1.835 0-3.748.859-4.578 1.273s-3.27 1.819-3.738 1.538c-.656-.515.603-2.439.322-2.861-1.64.058-4.408 3.385-3.705 3.9 4.779 2.53 8.654-3.46 12.744-2.483 1.688.429.634 2.42-.703 2.249-4.344-.444-7.403 2.155-11.573 2.717-1.827-.094-1.771-3.639-3.488-3.639 0 0 1.913-2.577 1.483-2.538-.429.039-1.835 1.132-2.147 1.171-.313.039-.566-1.641-.927-1.641-.361 0-.791 1.563-1.142 1.563s-1.621-.948-1.903-.948c-.283 0 1.669 2.588 1.669 2.588s-.281.08-.976.488c-.498.292-1.757 1.538-1.757 1.698 0 .3.819 1.349 1.201 1.669.76.638 1.962.264 1.962.264s-.107.526-.586.878c-.478.353-1.962 2.195-1.119 3.601-.848.78-6.583-.467-6.583-.467s-.439-.469-.966-.498-.937.732-.937.732-.645.292-.703.731c-.059.439.468.938.468.938s.234.673.703.79c.468.117 1.129-.221 1.229-.293.186-.134 5.222 1.579 8.355 1.491 3.133-.088 7.537-1.083 9.442-3.987 1.148-1.75 5.335-1.778 7.239-1.398 1.903.381 4.626 1.172 4.773 1.641.146.468-.42.962-.42.962s-.562.312-.72.815.48 1.087.48 1.087.126.697.538.861c.412.164 1.023-.225 1.023-.225s.71-.062.939-.487.063-1.149.018-1.264c0 0 1.041-2.485.768-3.383zm-25.019-4.777l.895-1.225 1.572.536-2.467.689zm5.163 4.886c-.182.298-.482 2.02-.482 2.02-.148-.212.062-1.194-.431-1.861-.493-.668-.819 2.46-1.349 3.587-.121-1.384.527-3.165.231-3.869-.168-.401-.993 1.568-.993 1.568.011-1.465 1.328-3.072.809-3.875-.108-.167-.767.147-1.071.431l-.128.152a.688.688 0 0 1 .128-.152c.331-.399 1.196-1.494 1.347-2.196.187-.87.202-2.226.202-2.226 1.289-.182 2.133 3.532 2.29 4.491.157.958.266 2.817.314 3.693-.001 0-.686-2.06-.867-1.763z"/><path fill="#003B5C" d="M31.944 34.258c.334.348 1.074.414 1.197.406.206-.014 3.818 4.115 4.672 4.368 0 0-.197-.482.078-1.359.275-.876 1.328-1.832 1.328-1.832-1.539-.092-4.627-3.102-4.627-3.102s-.123-.63-.554-.936c-.431-.305-1.183.122-1.183.122s-.701-.094-.984.247-.101 1.042-.101 1.042-.16.695.174 1.044zM54.8 38.403c.38.293.721.846.604 1.314-.117.468-1.302.535-1.302.535s-.624-.306-1.094-.065c-.47.239-.442 1.104-.442 1.104s-.41.576-.24.985c.17.409.876.575.876.575s.541.465 1.005.331c.464-.135.866-.759.916-.871l.122-.126s1.302-.302 1.917-1.15c.615-.85 1.329-2.047 1.329-2.047s-.615-.205-1.513-.38c-.899-.176-2.178-.205-2.178-.205zm-11.368-5.666c-.026.38-.073.86-.156 1.248-.061.285-.229.644-.493 1.064a.57.57 0 0 1 .179.164c.344.532.154 1.178-.103 1.851a.545.545 0 0 1 .33.358.588.588 0 0 1 .306-.169c.108-.022.381-.04.605.248.016-.035.031-.065.045-.089a.518.518 0 0 1 .552-.245 56.257 56.257 0 0 0-.214-1.481c-.123-.691-.548-2.197-1.051-2.949zm-15.497 2.798h-.006s-.913-1.086-1.527-.164 1.527 2.029 1.527 2.029h.006s2.142-1.107 1.527-2.029-1.527.164-1.527.164zm41.112-.168c-.614-.923-1.527.164-1.527.164h-.006s-.913-1.086-1.527-.164c-.614.922 1.527 2.029 1.527 2.029h.006s2.142-1.107 1.527-2.029zm-21.353 8.898h-.006s-.913-1.086-1.527-.164c-.614.923 1.527 2.029 1.527 2.029h.006s2.142-1.106 1.527-2.029c-.614-.922-1.527.164-1.527.164zm16.91 17.297c-.273-.897-3.514-1.405-4.373-1.718s-1.246-1.712-.378-2.606c.867-.895 1.813-1.734 1.452-3.467s-2.84-1.742-3.387-1.742c-1.835 0-3.749.858-4.578 1.273-.83.414-3.27 1.818-3.738 1.537-.656-.515.603-2.439.322-2.861-1.64.059-4.408 3.386-3.706 3.9 4.779 2.53 8.654-3.459 12.744-2.482 1.689.429.635 2.42-.702 2.249-4.344-.445-7.403 2.155-11.573 2.717-1.827-.094-1.771-3.64-3.489-3.64 0 0 1.914-2.576 1.484-2.537-.429.039-1.835 1.132-2.147 1.171s-.566-1.642-.927-1.642c-.361 0-.791 1.563-1.142 1.563-.351 0-1.62-.948-1.903-.948-.283 0 1.669 2.588 1.669 2.588s-.281.079-.977.488c-.498.293-1.757 1.538-1.757 1.698 0 .301.819 1.35 1.201 1.669.761.639 1.962.264 1.962.264s-.107.525-.585.879c-.479.353-1.962 2.194-1.119 3.601-.849.78-6.583-.468-6.583-.468s-.439-.469-.967-.498c-.527-.029-.937.732-.937.732s-.644.293-.703.732c-.059.438.469.937.469.937s.234.674.703.791c.468.117 1.13-.221 1.23-.293.186-.135 5.222 1.578 8.355 1.49s7.538-1.082 9.443-3.986c1.148-1.75 5.335-1.779 7.238-1.398s4.627 1.171 4.773 1.64c.147.469-.419.963-.419.963s-.562.311-.72.814.48 1.088.48 1.088.126.696.538.861c.411.164 1.023-.225 1.023-.225s.71-.063.939-.487c.229-.426.063-1.149.018-1.265-.001.001 1.04-2.484.767-3.382zm-25.019-4.777l.894-1.226 1.572.537-2.466.689zm5.162 4.886c-.181.297-.482 2.019-.482 2.019-.148-.211.062-1.193-.431-1.861-.493-.667-.82 2.461-1.349 3.587-.121-1.384.527-3.164.231-3.868-.168-.401-.993 1.567-.993 1.567.011-1.464 1.328-3.071.809-3.874-.108-.167-.768.147-1.071.431-.08.096-.129.152-.129.152a.648.648 0 0 1 .129-.152c.33-.398 1.195-1.494 1.346-2.195.188-.871.202-2.227.202-2.227 1.29-.182 2.133 3.532 2.29 4.49.157.959.266 2.818.313 3.694.001 0-.684-2.06-.865-1.763z"/><path fill="#003B5C" d="M32.047 57.987c.334.349 1.074.414 1.197.406.206-.014 3.818 4.114 4.672 4.368 0 0-.197-.483.078-1.359.275-.877 1.328-1.833 1.328-1.833-1.539-.092-4.627-3.101-4.627-3.101s-.123-.631-.554-.936c-.431-.306-1.183.122-1.183.122s-.701-.095-.984.246c-.283.341-.102 1.043-.102 1.043s-.16.695.175 1.044zm22.855 4.144c.381.293.722.846.604 1.314s-1.302.535-1.302.535-.624-.305-1.094-.065c-.471.239-.443 1.104-.443 1.104s-.41.577-.24.986.876.575.876.575.541.465 1.005.33c.464-.134.866-.758.916-.871l.122-.126s1.302-.301 1.917-1.149c.615-.85 1.329-2.047 1.329-2.047s-.615-.205-1.513-.381-2.177-.205-2.177-.205zm-11.367-5.666c-.026.381-.073.86-.156 1.248-.062.285-.229.644-.493 1.064a.61.61 0 0 1 .179.164c.343.532.153 1.178-.103 1.852a.539.539 0 0 1 .308.299c.007.018.015.038.021.059.09-.09.19-.146.306-.17.109-.022.381-.039.606.248a.523.523 0 0 1 .55-.342l.046.007a56.257 56.257 0 0 0-.214-1.481c-.122-.689-.547-2.195-1.05-2.948zm-15.497 2.799h-.005s-.913-1.087-1.527-.164c-.614.922 1.527 2.029 1.527 2.029h.005s2.142-1.107 1.527-2.029c-.614-.923-1.527.164-1.527.164zm41.112-.169c-.614-.922-1.527.164-1.527.164h-.005s-.914-1.086-1.528-.164c-.614.923 1.528 2.029 1.528 2.029h.005c0 .001 2.141-1.106 1.527-2.029zm-21.354 8.9h-.005s-.914-1.087-1.528-.164c-.614.922 1.528 2.029 1.528 2.029h.005s2.142-1.107 1.527-2.029c-.614-.923-1.527.164-1.527.164zm48.216-55.663c0-1.06 0-1.257-.008-1.479-.016-.239-.083-.313-.312-.378a1.3 1.3 0 0 0-.288-.025c-.074 0-.124-.024-.124-.074 0-.049.058-.065.165-.065.378 0 .838.017 1.043.017.221 0 .739-.017 1.174-.017.904 0 2.12 0 2.909.797.361.362.682.945.682 1.774 0 .879-.378 1.545-.789 1.947-.329.329-1.092.822-2.423.822-.263 0-.576-.025-.863-.042a9.796 9.796 0 0 0-.731-.041c-.082 0-.238.008-.411.008-.173.008-.354.017-.501.017-.09 0-.14-.025-.14-.074 0-.033.025-.074.115-.074.107 0 .189-.008.255-.025.147-.033.189-.165.213-.37.033-.296.033-.846.033-1.487v-1.231zm.97.772c0 .739.008 1.273.016 1.413.009.173.025.419.083.493.09.131.378.279.944.279.658 0 1.142-.115 1.578-.477.468-.386.616-1.01.616-1.733 0-.888-.353-1.462-.673-1.742-.665-.591-1.454-.666-2.021-.666-.148 0-.386.017-.443.049-.065.025-.09.058-.09.14-.008.238-.008.813-.008 1.364v.88zm9.166-.772c0-1.06 0-1.257-.009-1.479-.016-.239-.082-.313-.312-.378a1.3 1.3 0 0 0-.288-.025c-.074 0-.123-.024-.123-.074 0-.049.058-.065.164-.065.378 0 .838.017 1.044.017.23 0 1.832.008 1.971 0 .132-.009.247-.033.304-.042.041-.008.083-.033.115-.033.041 0 .049.033.049.065 0 .05-.041.132-.058.452-.008.074-.024.378-.041.46-.008.033-.025.114-.083.114-.049 0-.058-.033-.058-.09a.65.65 0 0 0-.049-.254c-.057-.124-.115-.222-.477-.255a24.168 24.168 0 0 0-1.134-.033c-.033 0-.049.025-.049.065v1.725c0 .041.008.074.049.074.165 0 1.101 0 1.266-.017.173-.017.271-.041.345-.107.058-.049.082-.09.115-.09s.058.033.058.074c0 .041-.017.156-.058.509-.017.14-.034.419-.034.468 0 .057-.008.156-.073.156-.05 0-.065-.025-.065-.058-.009-.074-.009-.165-.025-.255-.042-.14-.132-.246-.403-.271a23.273 23.273 0 0 0-1.134-.033c-.033 0-.041.033-.041.074v.559c0 .238-.009.83 0 1.036.016.476.238.583.978.583.189 0 .493-.008.682-.09.181-.083.263-.23.312-.518.017-.074.033-.107.082-.107.058 0 .066.09.066.165 0 .156-.058.632-.099.772-.049.181-.115.181-.386.181-.543 0-.978-.008-1.332-.024-.353-.008-.624-.017-.838-.017-.082 0-.238.008-.411.008-.172.008-.353.017-.501.017-.09 0-.14-.025-.14-.074 0-.033.025-.074.115-.074.107 0 .189-.008.255-.025.147-.033.189-.165.213-.37.033-.296.033-.846.033-1.487v-1.229zm9.082-1.593l-1.077.024c-.418.008-.591.058-.698.214a.798.798 0 0 0-.123.238c-.017.058-.033.09-.083.09-.049 0-.065-.041-.065-.115 0-.115.14-.789.156-.846.017-.09.042-.131.083-.131.058 0 .132.057.313.082.213.024.484.033.722.033h2.934c.23 0 .386-.017.493-.033.115-.016.172-.033.196-.033.05 0 .058.042.058.147 0 .148-.016.666-.016.847-.009.074-.025.115-.066.115-.057 0-.074-.033-.082-.139l-.008-.074c-.017-.181-.205-.395-.855-.403l-.912-.016v2.825c0 .641.008 1.191.042 1.496.024.196.065.328.279.361.099.017.263.025.37.025.082 0 .115.041.115.074 0 .049-.057.074-.14.074-.476 0-.961-.025-1.167-.025-.165 0-.658.025-.945.025-.09 0-.14-.025-.14-.074 0-.033.025-.074.115-.074a.99.99 0 0 0 .254-.025c.148-.033.189-.165.214-.37.033-.296.033-.846.033-1.487v-2.825zm13.481 1.593c0-1.06 0-1.257-.008-1.479-.017-.239-.082-.313-.313-.378a1.3 1.3 0 0 0-.288-.025c-.074 0-.123-.024-.123-.074 0-.049.058-.065.164-.065.378 0 .839.017 1.044.017.222 0 .739-.017 1.175-.017.903 0 2.119 0 2.908.797.361.362.682.945.682 1.774a2.71 2.71 0 0 1-.788 1.947c-.329.329-1.093.822-2.424.822-.263 0-.575-.025-.862-.042a9.853 9.853 0 0 0-.731-.041c-.082 0-.238.008-.411.008-.172.008-.353.017-.501.017-.091 0-.14-.025-.14-.074 0-.033.025-.074.115-.074.106 0 .188-.008.254-.025.148-.033.189-.165.215-.37.032-.296.032-.846.032-1.487v-1.231zm.97.772c0 .739.008 1.273.017 1.413.008.173.024.419.081.493.091.131.378.279.945.279.657 0 1.143-.115 1.578-.477.468-.386.615-1.01.615-1.733 0-.888-.353-1.462-.673-1.742-.666-.591-1.455-.666-2.021-.666-.148 0-.387.017-.444.049-.065.025-.09.058-.09.14-.008.238-.008.813-.008 1.364v.88zm9.56.723c-.041 0-.049.009-.065.049l-.386.944a1.267 1.267 0 0 0-.107.428c0 .123.066.197.288.197h.106c.091 0 .106.033.106.074 0 .058-.041.074-.115.074-.238 0-.574-.025-.805-.025-.074 0-.46.025-.838.025-.091 0-.131-.017-.131-.074 0-.041.024-.074.082-.074.065 0 .147-.008.213-.008.329-.05.452-.264.6-.617l1.89-4.362c.083-.197.141-.279.214-.279.107 0 .14.065.214.221.173.386 1.38 3.212 1.841 4.272.278.633.483.723.615.748.106.017.189.025.271.025.065 0 .098.025.098.074 0 .058-.04.074-.312.074-.255 0-.78 0-1.389-.017-.131-.008-.213-.008-.213-.058 0-.041.017-.065.09-.074.05-.008.099-.074.065-.156l-.559-1.413c-.016-.041-.04-.049-.073-.049h-1.7zm1.545-.386c.032 0 .041-.016.032-.041l-.682-1.75c-.008-.025-.017-.065-.032-.065-.025 0-.033.041-.041.065l-.698 1.741c-.017.033 0 .049.023.049h1.398zm7.176 1.2c.016.542.106.706.246.756.123.042.263.049.378.049.082 0 .123.033.123.074 0 .058-.065.074-.164.074-.468 0-.805-.025-.937-.025-.065 0-.41.025-.78.025-.099 0-.164-.008-.164-.074 0-.041.049-.074.114-.074.1 0 .23-.008.329-.033.189-.049.214-.239.222-.846l.065-4.141c0-.14.05-.238.124-.238.09 0 .188.106.312.23.091.09 1.175 1.2 2.227 2.227.493.484 1.454 1.47 1.562 1.569h.032l-.074-3.106c-.008-.427-.073-.551-.246-.616-.107-.041-.279-.041-.378-.041-.09 0-.115-.033-.115-.074 0-.058.074-.065.181-.065.378 0 .764.017.921.017.082 0 .353-.017.706-.017.099 0 .165.008.165.065 0 .042-.042.074-.124.074a.73.73 0 0 0-.222.025c-.197.058-.255.181-.263.575l-.082 4.404c0 .156-.058.222-.115.222-.123 0-.223-.075-.296-.148a175.008 175.008 0 0 1-2.111-2.013c-.788-.756-1.553-1.602-1.692-1.725h-.024l.08 2.85zm9.454.862c-.114-.049-.14-.083-.14-.238 0-.378.033-.813.041-.928 0-.107.033-.181.091-.181.065 0 .074.065.074.115 0 .09.024.238.065.361.155.518.698.69 1.149.69.625 0 1.003-.395 1.003-.888 0-.304-.074-.608-.715-.986l-.419-.246c-.854-.501-1.134-.97-1.134-1.585 0-.855.821-1.405 1.823-1.405.469 0 .839.065 1.027.115.066.016.099.041.099.09 0 .09-.024.288-.024.838 0 .147-.033.222-.091.222-.049 0-.073-.041-.073-.123a.787.787 0 0 0-.189-.46c-.106-.132-.336-.329-.806-.329-.517 0-.985.271-.985.747 0 .313.115.559.765.92l.295.164c.954.526 1.249 1.06 1.249 1.692 0 .518-.197.937-.723 1.307-.346.247-.821.288-1.208.288-.419.001-.862-.04-1.174-.18zm9-2.858h.033c.246-.263 1.298-1.299 1.512-1.537.205-.23.361-.394.361-.517 0-.074-.033-.124-.099-.14-.065-.017-.099-.033-.099-.074 0-.049.041-.065.115-.065.156 0 .551.017.748.017.221 0 .624-.017.846-.017.073 0 .123.017.123.065 0 .05-.041.074-.106.074-.106 0-.287.033-.419.083-.23.082-.46.229-.764.517-.23.214-1.307 1.233-1.528 1.487.254.329 1.676 1.808 1.955 2.07.32.288.6.592.985.748.214.09.362.09.443.09.058 0 .1.033.1.074 0 .049-.042.074-.173.074h-.633c-.214 0-.345 0-.501-.017-.386-.033-.624-.181-.937-.452s-1.7-1.882-1.857-2.095l-.073-.098h-.033v.632c0 .641 0 1.191.017 1.496.017.196.082.328.263.361.1.017.263.025.354.025.058 0 .099.041.099.074 0 .049-.058.074-.14.074-.402 0-.92-.025-1.101-.025-.164 0-.625.025-.912.025-.091 0-.14-.025-.14-.074 0-.033.024-.074.115-.074.106 0 .188-.008.254-.025.148-.033.189-.165.214-.37.033-.296.033-.846.033-1.487v-1.232c0-1.06 0-1.257-.009-1.479-.016-.239-.082-.313-.312-.378a1.296 1.296 0 0 0-.287-.025c-.074 0-.124-.024-.124-.074 0-.049.058-.065.164-.065.378 0 .839.017 1.011.017.173 0 .69-.017.929-.017.106 0 .156.017.156.065 0 .05-.042.074-.1.074-.073 0-.114.008-.205.025-.196.033-.254.131-.271.378-.009.221-.009.419-.009 1.479v.313zm8.072-.313c0-1.06 0-1.257-.008-1.479-.017-.239-.082-.313-.313-.378a1.296 1.296 0 0 0-.287-.025c-.074 0-.123-.024-.123-.074 0-.049.058-.065.164-.065.378 0 .839.017 1.044.017.229 0 1.831.008 1.971 0 .132-.009.247-.033.305-.042.041-.008.082-.033.115-.033.041 0 .049.033.049.065 0 .05-.041.132-.058.452-.008.074-.024.378-.041.46-.008.033-.024.114-.082.114-.05 0-.058-.033-.058-.09a.636.636 0 0 0-.05-.254c-.057-.124-.114-.222-.476-.255a24.208 24.208 0 0 0-1.134-.033c-.033 0-.049.025-.049.065v1.725c0 .041.008.074.049.074.164 0 1.101 0 1.266-.017.172-.017.271-.041.344-.107.058-.049.083-.09.115-.09.033 0 .058.033.058.074 0 .041-.016.156-.058.509-.016.14-.032.419-.032.468 0 .057-.009.156-.074.156-.049 0-.065-.025-.065-.058-.009-.074-.009-.165-.024-.255-.042-.14-.132-.246-.403-.271a23.235 23.235 0 0 0-1.134-.033c-.032 0-.04.033-.04.074v.559c0 .238-.009.83 0 1.036.016.476.238.583.977.583.189 0 .493-.008.682-.09.182-.083.264-.23.313-.518.017-.074.033-.107.083-.107.057 0 .065.09.065.165 0 .156-.058.632-.099.772-.05.181-.115.181-.387.181-.542 0-.978-.008-1.33-.024-.354-.008-.624-.017-.839-.017-.082 0-.238.008-.41.008-.173.008-.354.017-.501.017-.091 0-.14-.025-.14-.074 0-.033.024-.074.114-.074.107 0 .189-.008.255-.025.148-.033.188-.165.214-.37.032-.296.032-.846.032-1.487v-1.229zm-78.87 26.916c-.115-.05-.14-.082-.14-.238 0-.378.033-.813.042-.929 0-.106.033-.181.09-.181.066 0 .074.066.074.115 0 .091.025.238.066.361.156.518.698.689 1.15.689.624 0 1.002-.394 1.002-.887 0-.304-.073-.608-.714-.986l-.419-.246c-.854-.501-1.133-.969-1.133-1.585 0-.855.822-1.405 1.824-1.405.468 0 .838.065 1.027.114.065.017.099.042.099.091 0 .09-.025.287-.025.838 0 .147-.033.222-.09.222-.049 0-.074-.042-.074-.124a.793.793 0 0 0-.188-.46c-.107-.132-.337-.329-.806-.329-.518 0-.986.271-.986.747 0 .313.115.559.764.921l.296.164c.953.526 1.249 1.061 1.249 1.693 0 .518-.197.937-.723 1.306-.345.247-.822.288-1.208.288-.421.001-.864-.04-1.177-.179zm8.056-3.172c0-1.06 0-1.257-.008-1.479-.017-.238-.082-.312-.313-.377a1.294 1.294 0 0 0-.288-.025c-.073 0-.123-.024-.123-.074 0-.049.058-.065.165-.065.377 0 .837.016 1.043.016.296 0 .871-.016 1.199-.016.904 0 1.233.296 1.348.394.156.148.362.46.362.838 0 .986-.789 1.692-1.815 1.692-.033 0-.182 0-.214-.008-.041 0-.09-.024-.09-.074 0-.058.083-.09.238-.09.403 0 .97-.418.97-1.134 0-.23-.025-.689-.428-1.035a1.088 1.088 0 0 0-.723-.263c-.106 0-.246.008-.312.033-.042.017-.058.058-.058.132v2.768c0 .642 0 1.191.033 1.495.025.197.065.329.279.362.107.016.263.024.37.024.082 0 .115.041.115.073 0 .05-.058.075-.132.075-.484 0-.994-.025-1.183-.025-.165 0-.625.025-.912.025-.09 0-.14-.025-.14-.075 0-.032.025-.073.115-.073.106 0 .189-.009.255-.024.148-.033.189-.165.213-.37.033-.296.033-.846.033-1.487v-1.233zm8.285 0c0-1.06 0-1.257-.008-1.479-.017-.238-.082-.312-.313-.377a1.3 1.3 0 0 0-.288-.025c-.074 0-.123-.024-.123-.074 0-.049.058-.065.165-.065.378 0 .837.016.986.016.247 0 .903-.016 1.125-.016.46 0 .986.041 1.372.296.205.14.509.493.509.961 0 .518-.295.978-1.002 1.545.641.789 1.15 1.421 1.585 1.856.403.402.657.436.772.46a.655.655 0 0 0 .173.017c.057 0 .09.041.09.073 0 .058-.05.075-.14.075h-.69c-.402 0-.599-.042-.789-.141-.312-.155-.583-.484-.985-1.026-.288-.378-.592-.847-.682-.953-.041-.041-.082-.049-.131-.049l-.649-.017c-.033 0-.058.017-.058.058v.098c0 .649.008 1.191.041 1.487.025.205.058.337.28.37.106.016.263.024.353.024.058 0 .09.041.09.073 0 .05-.058.075-.148.075-.419 0-1.019-.025-1.125-.025-.14 0-.6.025-.887.025-.09 0-.14-.025-.14-.075 0-.032.024-.073.115-.073.107 0 .189-.009.255-.024.148-.033.189-.165.213-.37.033-.296.033-.846.033-1.487v-1.233zm.92.543c0 .074.016.099.066.123.156.049.37.065.55.065.288 0 .386-.024.509-.115.222-.156.468-.46.468-1.035 0-.986-.674-1.241-1.101-1.241-.181 0-.354.009-.427.025-.05.017-.066.042-.066.099v2.079zm7.276.073c0-1.191.839-2.735 3.032-2.735 1.823 0 2.957 1.01 2.957 2.612s-1.167 2.859-3.031 2.859c-2.104 0-2.958-1.495-2.958-2.736zm4.913.132c0-1.545-.929-2.498-2.095-2.498-.806 0-1.75.427-1.75 2.153 0 1.438.821 2.571 2.186 2.571.508 0 1.659-.238 1.659-2.226zm10.473 2.046c0 .188 0 .196-.091.246-.484.238-1.199.313-1.767.313-1.774 0-3.344-.806-3.344-2.736 0-1.117.6-1.898 1.266-2.284.69-.402 1.339-.451 1.947-.451.501 0 1.134.082 1.281.114.148.025.402.066.575.074.082.008.099.033.099.083 0 .082-.05.271-.05 1.15 0 .107-.04.156-.098.156-.05 0-.066-.033-.074-.091a.939.939 0 0 0-.246-.575c-.215-.222-.757-.534-1.569-.534-.396 0-.896.008-1.397.411-.402.329-.665.846-.665 1.7 0 1.504.97 2.597 2.514 2.597.189 0 .337 0 .51-.074.106-.05.14-.123.14-.246v-.642c0-.345 0-.607-.009-.821-.008-.239-.081-.313-.312-.378a1.28 1.28 0 0 0-.279-.024c-.065 0-.115-.033-.115-.074 0-.058.058-.065.155-.065.378 0 .896.017 1.109.017.23 0 .608-.017.847-.017.099 0 .147.008.147.065 0 .042-.041.074-.09.074-.058 0-.115.008-.197.024-.197.033-.271.131-.279.378-.008.213-.008.492-.008.837v.773zm7.176-2.145c.147 0 .263.017.263.115 0 .115-.14.14-.369.181-.329.05-1.832.313-2.12.395-.164.041-.295.131-.361.131-.065 0-.082-.065-.065-.147l.123-.567c.024-.098.058-.107.197-.107h2.332zm10.178-.033c0-1.191.838-2.735 3.031-2.735 1.824 0 2.958 1.01 2.958 2.612s-1.167 2.859-3.031 2.859c-2.103 0-2.958-1.495-2.958-2.736zm4.913.132c0-1.545-.929-2.498-2.095-2.498-.806 0-1.75.427-1.75 2.153 0 1.438.821 2.571 2.185 2.571.51 0 1.66-.238 1.66-2.226zm10.472 2.046c0 .188 0 .196-.091.246-.483.238-1.199.313-1.766.313-1.774 0-3.344-.806-3.344-2.736 0-1.117.6-1.898 1.266-2.284.689-.402 1.339-.451 1.946-.451.502 0 1.134.082 1.282.114.147.025.402.066.575.074.082.008.098.033.098.083 0 .082-.049.271-.049 1.15 0 .107-.041.156-.099.156-.049 0-.065-.033-.073-.091a.935.935 0 0 0-.247-.575c-.214-.222-.756-.534-1.568-.534-.396 0-.896.008-1.397.411-.402.329-.665.846-.665 1.7 0 1.504.969 2.597 2.514 2.597.188 0 .337 0 .509-.074.107-.05.14-.123.14-.246v-.642c0-.345 0-.607-.008-.821-.008-.239-.082-.313-.313-.378a1.27 1.27 0 0 0-.278-.024c-.066 0-.115-.033-.115-.074 0-.058.058-.065.155-.065.378 0 .896.017 1.109.017.23 0 .608-.017.847-.017.098 0 .147.008.147.065 0 .042-.041.074-.09.074-.058 0-.115.008-.198.024-.196.033-.271.131-.278.378-.009.213-.009.492-.009.837v.773zM96.982 61.052c0 .896 0 1.34.156 1.472.123.106.402.147.961.147.386 0 .666-.009.846-.197.09-.091.165-.288.181-.419.008-.066.025-.107.083-.107.049 0 .065.074.065.156s-.049.601-.107.806c-.049.155-.082.188-.459.188-.518 0-.937-.008-1.299-.024-.361-.009-.665-.017-.961-.017-.082 0-.238.008-.411.008-.173.009-.354.018-.501.018-.09 0-.14-.025-.14-.074 0-.033.025-.074.115-.074.107 0 .189-.009.255-.024.147-.033.189-.165.213-.37.033-.296.033-.846.033-1.487v-1.231c0-1.061 0-1.258-.008-1.479-.016-.238-.083-.312-.312-.378a.995.995 0 0 0-.239-.024c-.082 0-.123-.024-.123-.074 0-.049.049-.065.156-.065.337 0 .797.017.995.017.172 0 .764-.017 1.043-.017.107 0 .157.017.157.065 0 .05-.042.074-.132.074-.083 0-.197.009-.279.024-.197.033-.255.132-.272.378-.016.222-.016.419-.016 1.479v1.229zm6.955-1.231c0-1.061 0-1.258-.008-1.479-.017-.238-.09-.32-.247-.369a.944.944 0 0 0-.263-.033c-.074 0-.115-.017-.115-.082 0-.041.058-.058.172-.058.272 0 .764.017.97.017.181 0 .649-.017.928-.017.09 0 .148.017.148.058 0 .065-.041.082-.115.082-.073 0-.131.009-.213.024-.197.033-.255.132-.271.378-.017.222-.017.419-.017 1.479v1.231c0 .674 0 1.232.033 1.529.025.188.074.295.288.328.099.016.263.024.37.024.082 0 .115.041.115.074 0 .049-.058.074-.14.074-.476 0-.969-.025-1.167-.025-.165 0-.657.025-.944.025-.09 0-.14-.025-.14-.074 0-.033.025-.074.115-.074.106 0 .188-.009.255-.024.148-.033.188-.132.213-.337.033-.288.033-.847.033-1.521v-1.23zm7.693-1.595l-1.076.025c-.418.008-.591.057-.698.214a.787.787 0 0 0-.123.238c-.017.057-.033.09-.083.09-.049 0-.065-.041-.065-.115 0-.115.139-.788.156-.846.017-.091.041-.132.083-.132.057 0 .131.058.313.082.213.024.484.033.722.033h2.933c.23 0 .386-.017.493-.033.115-.016.172-.033.197-.033.049 0 .058.042.058.148 0 .147-.016.665-.016.846-.009.074-.025.115-.066.115-.057 0-.073-.032-.082-.14l-.009-.073c-.016-.181-.205-.395-.854-.403l-.912-.017v2.826c0 .642.008 1.191.041 1.495.025.197.066.329.28.362.098.016.263.024.37.024.082 0 .115.041.115.074 0 .049-.057.074-.139.074-.477 0-.961-.025-1.167-.025-.165 0-.657.025-.945.025-.09 0-.139-.025-.139-.074 0-.033.024-.074.115-.074.106 0 .197-.009.254-.024.147-.033.189-.165.214-.37.033-.296.033-.846.033-1.487v-2.825zm8.59 0l-1.076.025c-.42.008-.592.057-.699.214a.811.811 0 0 0-.123.238c-.017.057-.032.09-.082.09s-.065-.041-.065-.115c0-.115.14-.788.156-.846.017-.091.04-.132.082-.132.058 0 .131.058.312.082.214.024.485.033.724.033h2.933c.229 0 .387-.017.492-.033.115-.016.173-.033.198-.033.049 0 .057.042.057.148 0 .147-.016.665-.016.846-.009.074-.024.115-.066.115-.058 0-.073-.032-.081-.14l-.009-.073c-.017-.181-.206-.395-.854-.403l-.912-.017v2.826c0 .642.009 1.191.041 1.495.024.197.065.329.279.362.099.016.264.024.37.024.082 0 .114.041.114.074 0 .049-.058.074-.139.074-.478 0-.961-.025-1.167-.025-.164 0-.657.025-.945.025-.09 0-.139-.025-.139-.074 0-.033.024-.074.114-.074.107 0 .197-.009.255-.024.147-.033.189-.165.213-.37.034-.296.034-.846.034-1.487v-2.825zm7.628 1.595c0-1.061 0-1.258-.008-1.479-.017-.238-.082-.312-.313-.378a1.363 1.363 0 0 0-.287-.024c-.074 0-.123-.024-.123-.074 0-.049.058-.065.164-.065.378 0 .838.017 1.043.017.23 0 1.832.009 1.972 0 .132-.009.247-.033.305-.041.04-.008.082-.033.114-.033.041 0 .049.033.049.065 0 .05-.04.132-.057.452-.009.074-.024.378-.041.46-.009.033-.025.115-.083.115-.049 0-.057-.033-.057-.091a.68.68 0 0 0-.049-.255c-.058-.123-.115-.221-.478-.254a24.197 24.197 0 0 0-1.134-.032c-.032 0-.049.023-.049.065v1.725c0 .041.008.074.049.074.165 0 1.102 0 1.266-.017.173-.017.271-.041.346-.106.057-.049.081-.091.114-.091s.058.033.058.074-.017.156-.058.509a6.822 6.822 0 0 0-.033.469c0 .058-.008.155-.073.155-.05 0-.065-.023-.065-.057-.009-.074-.009-.164-.025-.255-.041-.14-.132-.246-.402-.271a23.235 23.235 0 0 0-1.134-.033c-.033 0-.041.033-.041.074v.559c0 .237-.008.829 0 1.034.017.478.238.584.978.584.189 0 .493-.009.683-.091.18-.081.263-.229.312-.517.017-.074.032-.107.082-.107.058 0 .065.091.065.165 0 .155-.058.632-.099.771-.049.181-.114.181-.386.181-.542 0-.978-.008-1.331-.024-.354-.009-.624-.017-.838-.017-.082 0-.238.008-.411.008-.172.009-.354.018-.501.018-.09 0-.139-.025-.139-.074 0-.033.023-.074.114-.074.106 0 .189-.009.255-.024.147-.033.189-.165.213-.37.033-.296.033-.846.033-1.487v-1.233zm7.957 0c0-1.061 0-1.258-.008-1.479-.017-.238-.083-.312-.313-.378a1.37 1.37 0 0 0-.287-.024c-.074 0-.124-.024-.124-.074 0-.049.058-.065.165-.065.378 0 .838.017.985.017.247 0 .904-.017 1.126-.017.46 0 .985.041 1.372.296.205.14.509.493.509.961 0 .519-.295.978-1.002 1.545.641.789 1.15 1.421 1.586 1.856.402.402.656.436.771.46.074.017.115.017.173.017s.09.041.09.074c0 .057-.049.074-.14.074h-.689c-.402 0-.6-.042-.789-.141-.312-.155-.583-.484-.985-1.026-.288-.378-.592-.847-.682-.953a.17.17 0 0 0-.132-.05l-.649-.016c-.032 0-.058.016-.058.058v.098c0 .649.009 1.191.041 1.487.025.205.058.337.28.37.106.016.263.024.353.024.058 0 .091.041.091.074 0 .049-.058.074-.148.074-.418 0-1.019-.025-1.126-.025-.139 0-.599.025-.887.025-.09 0-.14-.025-.14-.074 0-.033.024-.074.115-.074.106 0 .189-.009.255-.024.147-.033.188-.165.213-.37.033-.296.033-.846.033-1.487v-1.233zm.92.542c0 .073.017.099.066.123.156.049.369.065.55.065.288 0 .387-.024.51-.115.222-.155.468-.46.468-1.034 0-.986-.674-1.241-1.101-1.241-.181 0-.353.008-.427.024-.05.018-.066.041-.066.099v2.079zm8.418.952c-.041 0-.049.009-.065.05l-.387.944a1.265 1.265 0 0 0-.106.428c0 .123.065.197.287.197h.107c.09 0 .106.033.106.074 0 .057-.041.074-.115.074-.238 0-.574-.025-.805-.025-.074 0-.46.025-.838.025-.091 0-.132-.018-.132-.074 0-.041.024-.074.082-.074.066 0 .147-.009.214-.009.329-.049.452-.263.6-.616l1.89-4.361c.082-.198.14-.28.214-.28.106 0 .14.066.213.223.173.386 1.381 3.212 1.841 4.271.279.633.484.724.616.748.106.016.188.024.271.024.065 0 .098.024.098.074 0 .057-.041.074-.312.074-.255 0-.78 0-1.389-.018-.131-.008-.214-.008-.214-.057 0-.041.017-.066.091-.074.049-.009.099-.074.065-.156l-.559-1.413c-.017-.041-.041-.05-.074-.05h-1.699zm1.545-.386c.032 0 .04-.017.032-.041l-.682-1.749c-.008-.025-.017-.066-.033-.066-.024 0-.032.041-.041.066l-.698 1.741c-.017.032 0 .049.024.049h1.398zm7.151-2.703l-1.076.025c-.419.008-.592.057-.698.214-.074.098-.106.188-.124.238-.016.057-.032.09-.081.09-.05 0-.066-.041-.066-.115 0-.115.14-.788.156-.846.017-.091.041-.132.083-.132.057 0 .131.058.312.082.214.024.485.033.723.033H156c.23 0 .387-.017.493-.033.115-.016.173-.033.197-.033.05 0 .058.042.058.148 0 .147-.017.665-.017.846-.008.074-.024.115-.065.115-.058 0-.073-.032-.082-.14l-.009-.073c-.017-.181-.205-.395-.854-.403l-.912-.017v2.826c0 .642.008 1.191.041 1.495.024.197.065.329.279.362.099.016.263.024.369.024.083 0 .115.041.115.074 0 .049-.058.074-.14.074-.477 0-.961-.025-1.167-.025-.164 0-.656.025-.944.025-.09 0-.14-.025-.14-.074 0-.033.024-.074.115-.074.106 0 .197-.009.255-.024.147-.033.188-.165.213-.37.033-.296.033-.846.033-1.487v-2.825zm7.317 1.595c0-1.061.009-1.258-.009-1.479-.016-.246-.081-.312-.312-.378a1.339 1.339 0 0 0-.279-.024c-.082 0-.123-.024-.123-.074 0-.049.05-.065.155-.065.387 0 .871.017 1.085.017.182 0 .665-.017.929-.017.106 0 .156.017.156.065 0 .05-.042.074-.115.074-.082 0-.124.009-.214.024-.188.033-.246.132-.263.378-.017.222-.017.419-.017 1.479v.977c0 1.02.197 1.414.551 1.692.32.255.665.28.912.28.312 0 .682-.091.969-.37.403-.378.419-.985.419-1.7v-.879c0-1.061-.008-1.258-.016-1.479-.018-.238-.074-.312-.305-.378-.058-.016-.181-.024-.263-.024s-.123-.024-.123-.074c0-.049.049-.065.147-.065.37 0 .854.017.863.017.082 0 .566-.017.846-.017.099 0 .148.017.148.065 0 .05-.042.074-.123.074-.083 0-.124.009-.215.024-.197.033-.246.132-.263.378-.008.222-.016.419-.016 1.479v.747c0 .78-.082 1.602-.69 2.104-.509.427-1.06.501-1.528.501-.378 0-1.126-.017-1.651-.477-.369-.32-.657-.838-.657-1.849v-1.026zm9.781 0c0-1.061 0-1.258-.008-1.479-.017-.238-.082-.312-.313-.378a1.37 1.37 0 0 0-.287-.024c-.074 0-.123-.024-.123-.074 0-.049.058-.065.164-.065.378 0 .838.017.986.017.246 0 .903-.017 1.125-.017.46 0 .986.041 1.372.296.205.14.509.493.509.961 0 .519-.295.978-1.002 1.545.641.789 1.15 1.421 1.586 1.856.402.402.657.436.772.46.073.017.115.017.173.017.057 0 .09.041.09.074 0 .057-.05.074-.14.074h-.689c-.403 0-.601-.042-.79-.141-.312-.155-.582-.484-.985-1.026-.287-.378-.592-.847-.682-.953a.168.168 0 0 0-.132-.05l-.648-.016c-.033 0-.058.016-.058.058v.098c0 .649.008 1.191.041 1.487.024.205.058.337.279.37.106.016.263.024.354.024.058 0 .09.041.09.074 0 .049-.058.074-.147.074-.42 0-1.019-.025-1.126-.025-.14 0-.6.025-.887.025-.091 0-.14-.025-.14-.074 0-.033.024-.074.114-.074.107 0 .189-.009.255-.024.148-.033.189-.165.214-.37.032-.296.032-.846.032-1.487v-1.233zm.921.542c0 .073.016.099.065.123.156.049.37.065.551.065.287 0 .386-.024.509-.115.223-.155.469-.46.469-1.034 0-.986-.674-1.241-1.101-1.241-.182 0-.354.008-.428.024-.05.018-.065.041-.065.099v2.079zm7.588 2.629c-.115-.05-.14-.082-.14-.238 0-.378.032-.813.041-.928 0-.107.032-.182.09-.182.065 0 .074.066.074.115 0 .09.024.238.065.361.156.518.698.689 1.15.689.624 0 1.003-.394 1.003-.887 0-.304-.075-.608-.716-.985l-.419-.247c-.854-.501-1.134-.969-1.134-1.585 0-.854.821-1.405 1.824-1.405a4.3 4.3 0 0 1 1.027.115c.065.017.099.041.099.09 0 .091-.025.288-.025.838 0 .148-.032.223-.09.223-.05 0-.074-.042-.074-.123a.787.787 0 0 0-.189-.46c-.106-.132-.336-.329-.805-.329-.518 0-.985.271-.985.747 0 .313.115.559.764.921l.296.164c.953.525 1.249 1.06 1.249 1.692 0 .518-.197.937-.724 1.307-.345.246-.821.287-1.207.287-.419 0-.863-.041-1.174-.18zm8.054-3.171c0-1.061 0-1.258-.008-1.479-.017-.238-.082-.312-.313-.378a1.363 1.363 0 0 0-.287-.024c-.074 0-.124-.024-.124-.074 0-.049.058-.065.165-.065.378 0 .838.017 1.043.017.23 0 1.832.009 1.972 0 .132-.009.247-.033.305-.041.041-.008.081-.033.115-.033.04 0 .049.033.049.065 0 .05-.041.132-.058.452-.009.074-.025.378-.041.46-.008.033-.024.115-.082.115-.05 0-.058-.033-.058-.091a.647.647 0 0 0-.05-.255c-.057-.123-.114-.221-.477-.254a24.197 24.197 0 0 0-1.134-.032c-.032 0-.049.023-.049.065v1.725c0 .041.008.074.049.074.165 0 1.102 0 1.266-.017.173-.017.271-.041.345-.106.058-.049.082-.091.115-.091s.058.033.058.074-.017.156-.058.509a6.822 6.822 0 0 0-.033.469c0 .058-.008.155-.073.155-.05 0-.065-.023-.065-.057-.009-.074-.009-.164-.025-.255-.041-.14-.132-.246-.402-.271a23.273 23.273 0 0 0-1.134-.033c-.033 0-.041.033-.041.074v.559c0 .237-.009.829 0 1.034.017.478.238.584.978.584.189 0 .493-.009.682-.091.182-.081.263-.229.313-.517.017-.074.032-.107.082-.107.058 0 .065.091.065.165 0 .155-.058.632-.098.771-.05.181-.115.181-.387.181-.542 0-.978-.008-1.331-.024-.353-.009-.624-.017-.838-.017-.082 0-.238.008-.411.008a10.29 10.29 0 0 1-.501.018c-.09 0-.14-.025-.14-.074 0-.033.024-.074.115-.074.107 0 .189-.009.255-.024.147-.033.189-.165.213-.37.033-.296.033-.846.033-1.487v-1.233zm8.927 1.231c0 .896 0 1.34.156 1.472.123.106.402.147.961.147.387 0 .665-.009.847-.197.09-.091.164-.288.181-.419.008-.066.024-.107.082-.107.049 0 .065.074.065.156s-.05.601-.106.806c-.049.155-.083.188-.461.188-.517 0-.937-.008-1.298-.024-.361-.009-.665-.017-.961-.017-.082 0-.238.008-.411.008a10.29 10.29 0 0 1-.501.018c-.09 0-.14-.025-.14-.074 0-.033.025-.074.115-.074.107 0 .189-.009.255-.024.147-.033.188-.165.214-.37.032-.296.032-.846.032-1.487v-1.231c0-1.061 0-1.258-.008-1.479-.017-.238-.082-.312-.313-.378a.986.986 0 0 0-.238-.024c-.082 0-.123-.024-.123-.074 0-.049.05-.065.156-.065.337 0 .797.017.994.017.172 0 .764-.017 1.043-.017.107 0 .156.017.156.065 0 .05-.041.074-.131.074-.083 0-.198.009-.28.024-.196.033-.254.132-.271.378-.017.222-.017.419-.017 1.479v1.229zm6.56 1.94c-.114-.05-.14-.082-.14-.238 0-.378.034-.813.042-.928 0-.107.032-.182.09-.182.065 0 .074.066.074.115 0 .09.024.238.065.361.156.518.699.689 1.15.689.624 0 1.002-.394 1.002-.887 0-.304-.073-.608-.715-.985l-.418-.247c-.855-.501-1.134-.969-1.134-1.585 0-.854.821-1.405 1.823-1.405.468 0 .838.066 1.026.115.066.017.1.041.1.09 0 .091-.025.288-.025.838 0 .148-.032.223-.09.223-.05 0-.074-.042-.074-.123a.791.791 0 0 0-.188-.46c-.107-.132-.338-.329-.806-.329-.518 0-.985.271-.985.747 0 .313.114.559.764.921l.296.164c.952.525 1.249 1.06 1.249 1.692 0 .518-.197.937-.724 1.307-.345.246-.821.287-1.208.287-.418 0-.862-.041-1.174-.18zm9.001-2.86h.033c.246-.263 1.298-1.298 1.511-1.536.205-.23.362-.394.362-.518 0-.074-.033-.123-.1-.14-.065-.017-.098-.033-.098-.074 0-.049.04-.065.114-.065.156 0 .551.017.748.017.222 0 .624-.017.847-.017.073 0 .123.017.123.065 0 .05-.042.074-.107.074-.106 0-.287.033-.419.082-.229.082-.46.23-.764.518-.229.214-1.307 1.232-1.528 1.487.255.328 1.677 1.808 1.955 2.07.32.287.601.591.986.748.213.09.361.09.443.09.058 0 .099.033.099.074 0 .049-.041.074-.172.074h-.633c-.214 0-.346 0-.501-.018-.387-.032-.625-.18-.937-.451-.313-.271-1.701-1.882-1.857-2.095l-.073-.099h-.033v.632c0 .642 0 1.191.017 1.495.017.197.082.329.263.362.098.016.263.024.353.024.058 0 .1.041.1.074 0 .049-.058.074-.14.074-.403 0-.921-.025-1.102-.025-.164 0-.624.025-.912.025-.09 0-.14-.025-.14-.074 0-.033.025-.074.115-.074.107 0 .189-.009.255-.024.147-.033.188-.165.214-.37.032-.296.032-.846.032-1.487v-1.231c0-1.061 0-1.258-.008-1.479-.017-.238-.082-.312-.313-.378a1.37 1.37 0 0 0-.287-.024c-.074 0-.124-.024-.124-.074 0-.049.058-.065.165-.065.378 0 .838.017 1.01.017.173 0 .69-.017.929-.017.107 0 .156.017.156.065 0 .05-.041.074-.099.074-.073 0-.115.009-.205.024-.197.033-.255.132-.271.378-.008.222-.008.419-.008 1.479v.313zm8.303 1.183c-.041 0-.05.009-.066.05l-.386.944a1.265 1.265 0 0 0-.106.428c0 .123.065.197.287.197h.106c.091 0 .107.033.107.074 0 .057-.041.074-.115.074-.238 0-.575-.025-.806-.025-.073 0-.459.025-.837.025-.091 0-.132-.018-.132-.074 0-.041.024-.074.082-.074.065 0 .147-.009.213-.009.329-.049.452-.263.601-.616l1.89-4.361c.082-.198.139-.28.214-.28.106 0 .14.066.213.223.173.386 1.381 3.212 1.84 4.271.28.633.485.724.616.748.107.016.189.024.271.024.066 0 .099.024.099.074 0 .057-.041.074-.313.074-.254 0-.779 0-1.388-.018-.132-.008-.214-.008-.214-.057 0-.041.017-.066.091-.074.049-.009.098-.074.065-.156l-.559-1.413c-.017-.041-.042-.05-.074-.05h-1.699zm1.543-.386c.033 0 .041-.017.033-.041l-.682-1.749c-.009-.025-.017-.066-.033-.066-.024 0-.033.041-.041.066l-.698 1.741c-.017.032 0 .049.024.049h1.397zm6.726-1.108c0-1.061 0-1.258-.009-1.479-.017-.238-.082-.312-.312-.378a1.38 1.38 0 0 0-.288-.024c-.074 0-.123-.024-.123-.074 0-.049.058-.065.164-.065.378 0 .838.017.978.017.361 0 .838-.017 1.085-.017 1.306 0 1.536.674 1.536 1.044 0 .542-.402.96-.813 1.224.592.188 1.331.689 1.331 1.512 0 .748-.592 1.52-1.922 1.52-.083 0-.33-.008-.576-.024a22.976 22.976 0 0 0-.615-.017c-.083 0-.238.008-.411.008-.173.009-.354.018-.501.018-.091 0-.14-.025-.14-.074 0-.033.024-.074.114-.074.106 0 .189-.009.255-.024.147-.033.189-.165.214-.37.033-.296.033-.846.033-1.487v-1.236zm.937.114c0 .058.024.065.049.074.065.017.172.024.337.024.238 0 .443-.024.566-.123.189-.147.329-.402.329-.739 0-.468-.279-1.052-.903-1.052-.1 0-.238 0-.313.017-.05.009-.065.041-.065.115v1.684zm0 2.054c0 .461.024.601.255.69.188.074.353.083.517.083.387 0 .888-.215.888-.986 0-.32-.14-.871-.683-1.241a1.027 1.027 0 0 0-.624-.181h-.313c-.024 0-.04.009-.04.05v1.585z"/><path fill="none" stroke="#003B5C" d="M95.438 24.244h146.505M95.438.5h146.59M95.438 47.988h146.419M95.438 71.731h146.419"/></svg>