<svg xmlns="http://www.w3.org/2000/svg" width="24" height="24" viewBox="0 0 420 420">
    <g transform="scale(1.5,2) translate(40,20)">
        <g id="svgGroup1" stroke-linecap="round" fill-rule="evenodd" font-size="9pt" stroke="#fff" stroke-width="0.25mm" fill="#fff" style="stroke:#fff;stroke-width:0.25mm;fill:#fff">
            <path d="M 88.74 0 L 88.74 26.28 L 31.32 46.62 L 88.74 66.96 L 88.74 93.24 L 0 60.48 L 0 32.76 L 88.74 0 Z" id="lt"/>
            <path d="M 109.62 0 L 198.36 32.76 L 198.36 60.48 L 109.62 93.24 L 109.62 66.96 L 167.04 46.62 L 109.62 26.28 L 109.62 0 Z" id="gt"/>
        </g>
    </g>
    <!-- Text as SVG: -->
    <g transform="translate(40,280)">
        <g id="svgGroup2" stroke-linecap="round" fill-rule="evenodd" font-size="9pt" stroke="#fff" stroke-width="0.25mm" fill="#fff" style="stroke:#fff;stroke-width:0.25mm;fill:#fff">
            <path d="M 146.52 126 L 113.76 126 L 113.4 59.22 L 81 113.58 L 65.16 113.58 L 32.94 61.02 L 32.94 126 L 0 126 L 0 0 L 29.34 0 L 73.62 72.72 L 116.82 0 L 146.16 0 L 146.52 126 Z" id="M"/>
            <path d="M 207 98.46 L 272.88 98.46 L 272.88 126 L 171.72 126 L 171.72 0 L 270.54 0 L 270.54 27.54 L 207 27.54 L 207 48.78 L 262.98 48.78 L 262.98 75.42 L 207 75.42 L 207 98.46 Z" id="E"/>
            <path d="M 292.68 126 L 292.68 0 L 328.32 0 L 328.32 126 L 292.68 126 Z" id="I"/>
        </g>
    </g>
</svg>