<svg xmlns="http://www.w3.org/2000/svg" width="24" height="28" viewBox="0 20 440 540">
    <path d="M 217.699,35.339 C 117.251,35.339 35.816,116.775 35.816,217.218 C 35.816,305.024 98.05,378.297 180.812,395.343 C 183.304,377.177 198.85,363.167 217.702,363.167 C 236.54,363.167 252.088,377.182 254.577,395.349 C 337.342,378.297 399.576,305.024 399.576,217.218 C 399.574,116.775 318.146,35.339 217.699,35.339 z " style="fill:#c2005c;stroke:#c2005c;stroke-width:1" id="path4690"/>
    <path d="M 298.979,217.215 C 298.979,231.108 310.241,242.363 324.129,242.363 C 338.024,242.363 349.278,231.105 349.278,217.215 C 349.278,203.332 338.021,192.069 324.129,192.069 C 310.239,192.07 298.979,203.332 298.979,217.215 z " style="fill:#ffffff;stroke:#ffffff;stroke-width:5" id="path4680"/>
    <path d="M 86.112,217.215 C 86.112,231.108 97.374,242.363 111.263,242.363 C 125.157,242.363 136.414,231.105 136.414,217.215 C 136.414,203.332 125.157,192.069 111.263,192.069 C 97.374,192.07 86.112,203.332 86.112,217.215 z " style="fill:#ffffff;stroke:#ffffff;stroke-width:5" id="path4682"/>
    <path d="M 124.657,124.185 C 114.837,134.005 114.837,149.931 124.662,159.751 C 134.483,169.577 150.402,169.577 160.228,159.751 C 170.042,149.936 170.048,134.01 160.223,124.19 C 150.402,114.365 134.477,114.365 124.657,124.185 z " style="fill:#ffffff;stroke:#ffffff;stroke-width:5" id="path4684"/>
    <path d="M 217.696,85.657 C 203.808,85.657 192.546,96.919 192.551,110.807 C 192.546,124.701 203.802,135.958 217.699,135.958 C 231.576,135.958 242.842,124.701 242.842,110.807 C 242.842,96.919 231.585,85.657 217.696,85.657 z " style="fill:#ffffff;stroke:#ffffff;stroke-width:5" id="path4686"/>
    <path d="M 310.726,124.202 C 300.912,114.381 284.981,114.381 275.164,124.207 C 265.333,134.027 265.333,149.946 275.159,159.772 C 284.974,169.587 300.899,169.593 310.721,159.767 C 320.546,149.946 320.546,134.021 310.726,124.202 z " style="fill:#ffffff;stroke:#ffffff;stroke-width:5" id="path4688"/>
    <!-- Text as SVG: -->
    <g transform="translate(10,420)">
        <g id="svgGroup" stroke-linecap="round" fill-rule="evenodd" font-size="9pt" stroke="#c2005c" stroke-width="0.25mm" fill="#c2005c" style="stroke:#c2005c;stroke-width:0.25mm;fill:#c2005c">
            <path d="M 146.52 126.001 L 113.76 126.001 L 113.4 59.221 L 81 113.581 L 65.16 113.581 L 32.94 61.021 L 32.94 126.001 L 0 126.001 L 0 0.001 L 29.34 0.001 L 73.62 72.721 L 116.82 0.001 L 146.16 0.001 L 146.52 126.001 Z" id="M"/>
            <path d="M 171.72 126.001 L 171.72 0.001 L 207.36 0.001 L 207.36 126.001 L 171.72 126.001 Z" id="I"/>
            <path d="M 232.74 126.001 L 232.74 0.001 L 292.32 0.001 Q 313.02 0.001 329.04 7.741 A 60.372 60.372 0 0 1 347.142 20.879 A 56.691 56.691 0 0 1 353.88 29.701 Q 362.7 43.921 362.7 63.001 A 69.603 69.603 0 0 1 360.512 80.801 A 56.602 56.602 0 0 1 353.88 96.301 Q 345.06 110.521 329.04 118.261 A 77.062 77.062 0 0 1 305.998 125.087 A 99.056 99.056 0 0 1 292.32 126.001 L 232.74 126.001 Z M 268.38 97.561 L 290.88 97.561 A 46.428 46.428 0 0 0 302.131 96.27 A 32.805 32.805 0 0 0 316.89 88.381 A 30.149 30.149 0 0 0 325.835 72.001 A 44.514 44.514 0 0 0 326.7 63.001 Q 326.7 46.801 316.89 37.621 A 33.24 33.24 0 0 0 300.381 29.338 A 47.956 47.956 0 0 0 290.88 28.441 L 268.38 28.441 L 268.38 97.561 Z" id="D"/>
            <path d="M 381.42 126.001 L 381.42 0.001 L 417.06 0.001 L 417.06 126.001 L 381.42 126.001 Z" id="I2"/>
        </g>
    </g>
</svg>