<svg xmlns="http://www.w3.org/2000/svg" xmlns:svg="http://www.w3.org/2000/svg" width="20" height="24" style="vector-effect: non-scaling-stroke;">
 <!-- Created with Inkscape (http://www.inkscape.org/) -->
 <title>PDF file icon</title>
 <defs>
  <clipPath clipPathUnits="userSpaceOnUse" id="clipPath839" style="vector-effect: non-scaling-stroke;">
   <rect fill="#000000" fill-rule="nonzero" height="67.886459" id="rect841" stroke-dashoffset="0" stroke-linejoin="round" stroke-miterlimit="4" style="vector-effect: non-scaling-stroke;" width="68.688263" x="-74.033661" y="141.44913"/>
  </clipPath>
 </defs>
 <metadata id="metadata5">image/svg+xmlPDF file icon08/10/2018Adobe SystemsCMetalCoreFuente del texto "PDF":
Franklin Gothic Medium Cond</metadata>
 <g class="layer">
  <title>Layer 1</title>
  <g id="layer1">
   <g id="g899" transform="matrix(0.388078, 0, 0, 0.374267, 6.04257, -22.2833)">
    <g id="g876">
     <path d="m-11.902939,105.051337c-2.475735,-2.475735 0.202826,-5.877748 7.472091,-9.490304l4.573929,-2.273045l1.781906,-3.898778c0.980052,-2.14432 2.442764,-5.643158 3.25048,-7.775157l1.468592,-3.876395l-1.012021,-2.868742c-1.244368,-3.52739 -1.688107,-8.828171 -0.898592,-10.73423c1.069415,-2.581788 4.572315,-2.316894 5.959107,0.450639c1.08308,2.161435 0.972353,6.07573 -0.311513,11.012244l-1.052539,4.047082l0.927111,1.573862c0.50992,0.865621 1.999365,2.920986 3.309897,4.567454l2.463073,3.063835l3.064939,-0.399958c9.736808,-1.270559 13.071757,0.888871 13.071757,3.985065c0,3.90765 -7.645463,4.230193 -14.065729,-0.279119c-1.44456,-1.014605 -2.436594,-2.022496 -2.436594,-2.022496c0,0 -4.022065,0.818815 -6.002343,1.352562c-2.04408,0.550947 -3.063869,0.895992 -6.058106,1.906671c0,0 -1.050567,1.525646 -1.735151,2.634763c-2.54693,4.126367 -5.520738,7.546022 -7.644511,8.790645c-2.377857,1.393522 -4.870673,1.48851 -6.125783,0.233401zm3.885284,-1.387998c1.391652,-0.860097 4.208388,-4.191545 6.15821,-7.283524l0.78943,-1.251863l-3.594523,1.807297c-5.551704,2.791344 -8.091496,5.422164 -6.770817,7.013481c0.74191,0.893936 1.629438,0.819818 3.4177,-0.28539zm36.061461,-10.122218c1.361162,-0.953403 1.163571,-2.874673 -0.375297,-3.6493c-1.197613,-0.602852 -2.16288,-0.726716 -5.274013,-0.680794c-1.911837,0.130356 -4.986107,0.515647 -5.507142,0.632866c0,0 1.688872,1.167225 2.438685,1.596263c0.99817,0.570101 3.423802,1.628367 5.194745,2.170443c1.746895,0.534699 2.75737,0.478325 3.523022,-0.069512l0,0.000034zm-14.499848,-6.026545c-0.823778,-0.865961 -2.22454,-2.673343 -3.112782,-4.016405c-1.161702,-1.523538 -1.744244,-2.598409 -1.744244,-2.598409c0,0 -0.849101,2.731094 -1.545718,4.374571l-2.173332,5.371908l-0.630113,1.218501c0,0 3.349905,-1.098376 5.054311,-1.543576c1.805224,-0.471527 5.46897,-1.191971 5.46897,-1.191971l-1.317093,-1.614618zm-4.672742,-18.738913c0.210117,-1.763296 0.299293,-3.523974 -0.267239,-4.411842c-1.571415,-1.717866 -3.468075,-0.285305 -3.146807,3.79881c0.108092,1.373926 0.449415,3.722602 0.905731,5.170221l0.829675,2.631993l0.583936,-1.982335c0.321166,-1.090286 0.813784,-3.43337 1.094705,-5.206846z" fill="#ff2116" id="path2697" stroke-width="0.264583"/>
     <g id="g858">
      <path d="m-6.376363,107.784025l4.157148,0q1.992495,0 3.234728,0.298013q1.242215,0.288409 2.090861,1.297849q0.848663,0.999822 0.848663,2.41303q0,1.297836 -0.688756,2.230361q-0.688774,0.932525 -1.857197,1.345911q-1.156136,0.413386 -3.566792,0.413386l-1.439018,0l0,5.124087l-2.779635,0l0,-13.122637zm2.779635,1.682382l0,4.576108l1.377513,0q1.844893,0 2.545954,-0.538375q0.713366,-0.538362 0.713366,-1.749678q0,-0.903686 -0.46738,-1.461283q-0.467362,-0.567201 -1.033143,-0.692177q-0.553459,-0.134649 -1.758796,-0.134649l-1.377513,0.000055z" fill="#2c2c2c" id="path845" stroke-width="0.358247px"/>
      <path d="m6.082811,107.784025l3.775882,0q2.742739,0 4.378542,0.759474q1.648108,0.759474 2.484466,2.259214q0.848645,1.499726 0.848645,3.32632q0,1.92273 -0.762549,3.432074q-0.750262,1.499726 -2.312272,2.422634q-1.549706,0.922921 -4.427742,0.922921l-3.984972,0l0,-13.122637zm2.779652,1.740061l0,9.642502l1.156119,0q2.422961,0 3.517592,-1.307467q1.094649,-1.317057 1.094649,-3.508975q0,-4.82606 -4.61224,-4.82606l-1.156119,0z" fill="#2c2c2c" id="path847" stroke-width="0.358247px"/>
      <path d="m20.239292,107.784025l9.322865,0l0,1.740061l-6.543212,0l0,3.922374l5.239492,0l0,1.740074l-5.239492,0l0,5.720128l-2.779652,0l0,-13.122637z" fill="#2c2c2c" id="path849" stroke-width="0.358247px"/>
     </g>
    </g>
   </g>
  </g>
 </g>
</svg>