<?xml version="1.0" encoding="utf-8"?>
<svg id="master-artboard" viewBox="4 4 24 24" xmlns="http://www.w3.org/2000/svg" 
    width="24px" height="24px" version="1.1" 
    style="shape-rendering:geometricPrecision; text-rendering:geometricPrecision; image-rendering:optimizeQuality; fill-rule:evenodd; clip-rule:evenodd">
    <!-- edited with https://www.vecteezy.com/editor/ -->
    <path style="isolation: auto; mix-blend-mode: normal; paint-order: fill;" 
        d="M 9 4 
        C 7.4 3.9 6 5.2 6 7 
        L 6 25 
        C 6 26.8 7.3 28.1 9.5 28 
        L 26 28 
        L 26 27 
        L 9.5 27 
        C 8 27 7 26.4 7 25 
        C 7 23.6 7.9 23 9.5 23 
        L 25.5 23 
        L 26 23 
        L 26 22 
        L 26 4 
        L 9 4 
        Z 
        M 9 5 
        L 25 5 
        L 25 22 
        L 9.5 22 
        C 8 22 7.7 22.1 7 22.8 
        L 7 7 
        C 7 6 7.6 5 9 5 
        Z 
        M 11 10 
        L 11 11 
        L 23 11 
        L 23 10 
        L 11 10 
        Z" 
        fill="#003B5C"/>
</svg>